<?xml version="1.0" encoding="utf-8"?>
<!-- Generator: Adobe Illustrator 26.2.1, SVG Export Plug-In . SVG Version: 6.00 Build 0)  -->
<svg version="1.1" id="레이어_1" xmlns="http://www.w3.org/2000/svg" xmlns:xlink="http://www.w3.org/1999/xlink" x="0px"
	 y="0px" viewBox="0 0 521.8 354.8" style="enable-background:new 0 0 521.8 354.8;" xml:space="preserve">
<g>
	<g>
		<path d="M468.7,157.7c0.2-2,0.3-4,0.3-6c0-33-27-60.8-63.3-67.3c0.3-2.3,0.4-4.7,0.4-7c0-37.9-35.8-68.8-79.8-68.8
			c-26.8,0-51.7,11.8-66.4,30.6c-17.1-8.7-36.5-13.3-56.7-13.3c-35.6,0-69.3,14.8-90.1,39.4c-2.8,3.2-5.5,6.8-7.9,10.8
			c-0.5,0.8-1,1.6-1.4,2.4c-5.6,9.6-9.3,19.8-10.8,30.5c-0.6,4.2-0.9,8.1-0.9,12l0,1.5l0,1c0,7,0.8,14,2.3,20.8
			c-2.8-0.3-5.6-0.5-8.5-0.5c-34.1,0-63.7,23.5-73.9,58.4c-2.1,7.2-3.2,14.7-3.4,22.7c0.3,15.1,5.6,29.5,15.4,41.7l3.1,3.9l365.2,0
			h89.8h4.1l3.2-2.7c1.4-1.2,2.6-2.4,3.8-3.7c12-12.2,18.7-28,18.7-45.3C512.1,193,495,169.3,468.7,157.7z M477.9,251l-75.3,0
			c-2.8-4.4-4.4-9.2-4.4-14.2c0-8,3.6-15.5,10.2-21.2c4.2-3.7,4.5-9.9,0.5-13.8c-3.9-4-10.6-4.2-14.8-0.5
			c-10.9,9.4-16.9,22.1-16.9,35.5c0,4.9,0.8,9.7,2.4,14.2L38,251c-5.3-8-8.2-17-8.4-26c0.2-6,1.1-12,2.7-17.7
			C40,181,61.6,163.3,86,163.3c6.9,0,13.6,1.4,19.9,4.1l25,10.7l-11.1-23.6c-4.5-9.5-6.8-20.3-6.8-31.6l0-0.9l0-1.1
			c0-3,0.2-6.1,0.7-9.3c1.2-8.3,4.1-16.3,8.5-23.9l1.2-2c1.8-2.9,3.8-5.7,6-8.2c16.9-20.1,44.5-32,73.7-32
			c19.8,0,38.5,5.3,54.3,15.2l9.8,6.2l5.4-9.9c9.5-17.6,30.6-28.9,53.6-28.9c32.4,0,58.8,22.1,58.8,49.3c0,4.1-0.7,8.2-1.9,12.2
			c-6.3,21.7-28.4,34.9-52.1,30.7c-9.1-1.6-17-6.3-22.1-13.3c-4.8-6.6-6.6-14.4-5-22.1c1.1-5.3-2.7-10.4-8.3-11.4
			c-5.7-1-11.2,2.5-12.2,7.8c-2.6,12.8,0.3,25.9,8.3,36.8c8.3,11.3,20.9,19,35.5,21.5c4.1,0.7,8.2,1.1,12.3,1.1
			c26.2,0,50-14.6,60.6-37.2c27.3,4.4,47.8,24.5,47.8,48.3c0,3.3-0.4,6.6-1.2,9.9l-2,8.5l8.8,2.9c22.8,7.5,37.5,25.5,37.5,45.9
			C491.1,231.1,486.5,242.3,477.9,251z"/>
		<path d="M487.8,274l-462.4,0l-4.2-5.3C10.9,255.8,5.4,240.7,5,225c0.2-8.3,1.4-16,3.6-23.7c10.6-36.5,41.7-61,77.4-61
			c1.3,0,2.6,0,3.9,0.1c-1-5.6-1.5-11.2-1.5-16.9l0-1.1l0-1.5c0-4.1,0.3-8.2,0.9-12.5c1.6-11.1,5.4-21.7,11.3-31.7
			c0.5-0.9,1-1.7,1.5-2.5c2.5-4,5.2-7.8,8.2-11.2c21.4-25.4,56.2-40.6,92.9-40.6c19.6,0,38.7,4.2,55.7,12.3
			c15.8-18.6,40.7-29.7,67.4-29.7c46,0,83.5,32.4,83.5,72.3c0,1.4,0,2.9-0.1,4.3c36.7,8,63,37,63,70.1c0,1.3,0,2.6-0.1,3.9
			c26.3,12.6,43.1,37.2,43.1,63.3c0,17.9-7,34.8-19.6,47.6c-1.5,1.5-2.7,2.7-4,3.9L487.8,274z M29.1,267l455.8,0l2.2-1.8
			c1.2-1,2.3-2.1,3.4-3.3c11.6-11.7,17.9-27,17.9-43.1c0-24.1-16.2-46.9-41.2-58.1l-2.3-1l0.2-2.4c0.2-1.9,0.3-3.8,0.3-5.6
			c0-30.7-25.4-57.6-60.3-63.9l-3.3-0.6l0.4-3.2c0.3-2.2,0.4-4.4,0.4-6.7c0-36-34.1-65.4-76.1-65.4c-25.5,0-49.2,10.9-63.4,29.2
			l-1.9,2.5l-2.8-1.5c-16.5-8.4-35.5-12.9-54.9-12.9c-34.5,0-67.1,14.2-87.2,38.1c-2.8,3.2-5.3,6.6-7.6,10.4
			c-0.5,0.8-0.9,1.5-1.3,2.1c-5.5,9.4-9,19.3-10.5,29.5c-0.6,4-0.9,7.7-0.9,11.5l0,1.5l0,1.1c0,6.7,0.8,13.4,2.3,20l1.1,4.7
			l-5.2-0.6c-2.7-0.3-5.4-0.5-8-0.5c-32.4,0-60.6,22.5-70.3,55.9c-2,7.1-3.1,14.3-3.3,21.9c0.3,14.2,5.4,27.9,14.6,39.5L29.1,267z
			 M479.6,254.4l-79,0l-1.1-1.7c-3.2-5.1-4.9-10.5-4.9-16c0-8.9,4.1-17.4,11.4-23.7c2.7-2.4,2.9-6.4,0.3-8.9
			c-2.5-2.5-6.9-2.6-9.6-0.3c-10.1,8.8-15.7,20.5-15.7,33c0,4.5,0.7,8.9,2.2,13.2l1.5,4.5l-348.8,0l-1.1-1.6
			c-5.6-8.5-8.7-18.1-8.9-27.7c0.2-6.5,1.1-12.7,2.9-18.7c8-27.8,31-46.5,57.2-46.5c7.4,0,14.6,1.5,21.5,4.4l16.2,7l-7.2-15.2
			c-4.7-10.1-7.1-21.2-7.1-33l0-1l0-1c0-3.3,0.2-6.5,0.7-9.9c1.3-8.7,4.3-17.1,8.9-25.1l1.2-2.1c1.9-3.1,4.1-6,6.4-8.7
			C144.3,54.4,172.9,42,203.3,42c20.5,0,40,5.5,56.4,15.8l6.4,4l3.5-6.4c10.2-18.7,32.5-30.8,56.9-30.8c34.5,0,62.5,23.6,62.5,52.7
			c0,4.3-0.7,8.7-2,13.1c-5.9,20.3-24.8,34-46.9,34c-3.1,0-6.3-0.3-9.4-0.8c-10.1-1.8-18.8-7-24.4-14.8c-5.4-7.3-7.4-16.1-5.6-24.7
			c0.3-1.7,0-3.3-1-4.7c-1-1.4-2.6-2.3-4.3-2.7c-3.6-0.6-7.3,1.7-7.9,5c-2.4,11.9,0.3,24.1,7.7,34.2c7.7,10.6,19.5,17.7,33.1,20.1
			c3.8,0.7,7.7,1,11.6,1c24.8,0,47.2-13.8,57.2-35.1l1.2-2.5l2.8,0.5c29.5,4.7,50.9,26.5,50.9,51.7c0,3.6-0.4,7.1-1.3,10.6l-1.3,5.5
			l5.7,1.9c24.3,8,39.9,27.2,39.9,49.2c0,13.2-4.9,25.1-14.1,34.5L479.6,254.4z M404.8,247.5l71.5,0c7.3-7.9,11.1-17.8,11.1-28.7
			c0-18.9-13.7-35.7-35-42.6l-11.9-3.9l2.8-11.5c0.7-3,1.1-6.1,1.1-9.1c0-21.1-17.5-39.5-42-44.4c-11.7,22.4-36,36.7-62.7,36.7
			c-4.3,0-8.6-0.4-12.9-1.1c-15.6-2.7-29.1-10.9-37.9-23c-8.5-11.7-11.7-25.6-8.9-39.4c1.4-7,8.7-11.9,16.5-10.5
			c3.7,0.7,7,2.6,9.1,5.6c2.1,2.9,2.9,6.4,2.2,9.9c-1.4,6.8,0.2,13.7,4.5,19.5c4.5,6.2,11.5,10.5,19.7,11.9c2.7,0.5,5.4,0.7,8,0.7
			c18.8,0,34.8-11.6,39.8-29c1.2-3.9,1.7-7.7,1.7-11.3c0-25.3-24.7-45.8-55.1-45.8c-21.6,0-41.3,10.6-50.3,27l-7.3,13.4l-13.3-8.4
			c-15.1-9.6-33.2-14.6-52.2-14.6c-28.1,0-54.6,11.5-70.8,30.7c-2.1,2.4-4,5.1-5.7,7.8l-1.2,2c-4.2,7.2-6.9,14.8-8.1,22.7
			c-0.4,3.1-0.7,6-0.7,8.9l0,1.1l0,1.1c0,10.8,2.2,21,6.5,30.2l15,31.9l-33.9-14.5c-5.9-2.5-12.1-3.8-18.4-3.8
			c-22.8,0-42.9,16.6-50.1,41.4c-1.6,5.5-2.4,11.1-2.6,16.9c0.2,7.7,2.5,15.4,6.8,22.5l334.7,0c-0.8-3.5-1.2-7.2-1.2-10.8
			c0-14.4,6.4-27.9,18.1-38c5.5-4.8,14.9-4.5,20,0.7c5.3,5.3,5,13.7-0.7,18.7c-5.8,5-9,11.7-9,18.7
			C401.9,240.4,402.9,244,404.8,247.5z"/>
	</g>
</g>
<g id="레이어_2">
</g>
<g>
	<path d="M40.8,344.5l-13.2-40.3h9.7l11.5,35.7h-4.8l12-35.7h8.6L76,339.9h-4.7l11.8-35.7H92l-13.2,40.3h-10l-10.2-31.3h2.7
		l-10.5,31.3H40.8z"/>
	<path d="M116.4,345.2c-3.2,0-6.1-0.5-8.8-1.6c-2.7-1-5.1-2.5-7-4.4c-2-1.9-3.5-4.1-4.6-6.6c-1.1-2.5-1.6-5.3-1.6-8.3
		c0-3,0.5-5.8,1.6-8.3c1.1-2.5,2.6-4.7,4.6-6.6c2-1.9,4.3-3.3,7-4.4c2.7-1,5.6-1.6,8.8-1.6c3.2,0,6.1,0.5,8.8,1.6c2.7,1,5,2.5,7,4.4
		c2,1.9,3.5,4.1,4.6,6.6c1.1,2.5,1.7,5.3,1.7,8.3c0,3-0.6,5.8-1.7,8.3c-1.1,2.6-2.7,4.8-4.6,6.6c-2,1.9-4.3,3.3-7,4.4
		C122.4,344.7,119.5,345.2,116.4,345.2z M116.3,337.2c1.8,0,3.5-0.3,5-0.9c1.5-0.6,2.9-1.5,4-2.7c1.2-1.2,2-2.5,2.7-4.1
		c0.6-1.6,1-3.3,1-5.2c0-1.9-0.3-3.7-1-5.2c-0.6-1.6-1.5-2.9-2.7-4.1c-1.1-1.2-2.5-2-4-2.7c-1.5-0.6-3.2-0.9-5-0.9
		c-1.8,0-3.5,0.3-5,0.9c-1.5,0.6-2.9,1.5-4,2.7c-1.2,1.2-2,2.5-2.7,4.1c-0.6,1.6-1,3.3-1,5.2c0,1.9,0.3,3.6,1,5.2
		c0.6,1.6,1.5,3,2.7,4.1c1.1,1.2,2.5,2,4,2.7C112.8,336.9,114.5,337.2,116.3,337.2z"/>
	<path d="M165,345.2c-3.2,0-6.1-0.5-8.8-1.6c-2.7-1-5.1-2.5-7-4.4c-2-1.9-3.5-4.1-4.6-6.6c-1.1-2.5-1.6-5.3-1.6-8.3
		c0-3,0.5-5.8,1.6-8.3c1.1-2.5,2.6-4.7,4.6-6.6c2-1.9,4.3-3.3,7-4.4c2.7-1,5.6-1.6,8.8-1.6c3.2,0,6.1,0.5,8.8,1.6c2.7,1,5,2.5,7,4.4
		c2,1.9,3.5,4.1,4.6,6.6c1.1,2.5,1.7,5.3,1.7,8.3c0,3-0.6,5.8-1.7,8.3c-1.1,2.6-2.7,4.8-4.6,6.6c-2,1.9-4.3,3.3-7,4.4
		C171,344.7,168.1,345.2,165,345.2z M164.9,337.2c1.8,0,3.5-0.3,5-0.9c1.5-0.6,2.9-1.5,4-2.7c1.2-1.2,2-2.5,2.7-4.1
		c0.6-1.6,1-3.3,1-5.2c0-1.9-0.3-3.7-1-5.2c-0.6-1.6-1.5-2.9-2.7-4.1c-1.1-1.2-2.5-2-4-2.7c-1.5-0.6-3.2-0.9-5-0.9
		c-1.8,0-3.5,0.3-5,0.9c-1.5,0.6-2.9,1.5-4,2.7c-1.2,1.2-2,2.5-2.7,4.1c-0.6,1.6-1,3.3-1,5.2c0,1.9,0.3,3.6,1,5.2
		c0.6,1.6,1.5,3,2.7,4.1c1.1,1.2,2.5,2,4,2.7C161.5,336.9,163.1,337.2,164.9,337.2z"/>
	<path d="M194,344.5v-40.3h7.7l23.8,29h-3.7v-29h9.2v40.3h-7.7l-23.9-29h3.7v29H194z"/>
	<path d="M276.2,345.2c-3.1,0-6-0.5-8.7-1.5c-2.7-1-5-2.5-6.9-4.4c-2-1.9-3.5-4.1-4.6-6.6c-1.1-2.5-1.6-5.3-1.6-8.4
		c0-3,0.5-5.8,1.6-8.4c1.1-2.5,2.6-4.7,4.6-6.6c2-1.9,4.3-3.3,6.9-4.4c2.7-1,5.5-1.5,8.7-1.5c3.5,0,6.7,0.6,9.5,1.8
		c2.8,1.2,5.2,3,7.1,5.3l-6,5.5c-1.4-1.6-2.9-2.8-4.6-3.5c-1.7-0.8-3.5-1.2-5.5-1.2c-1.9,0-3.6,0.3-5.2,0.9
		c-1.6,0.6-2.9,1.5-4.1,2.7c-1.2,1.2-2,2.5-2.7,4.1c-0.6,1.6-1,3.3-1,5.2c0,1.9,0.3,3.7,1,5.2c0.6,1.6,1.5,2.9,2.7,4.1
		c1.2,1.2,2.5,2,4.1,2.7c1.6,0.6,3.3,0.9,5.2,0.9c2,0,3.8-0.4,5.5-1.2c1.7-0.8,3.2-2,4.6-3.6l6,5.5c-1.9,2.3-4.3,4.1-7.1,5.4
		C282.9,344.6,279.7,345.2,276.2,345.2z"/>
	<path d="M317.8,345.2c-3.2,0-6.1-0.5-8.8-1.6c-2.7-1-5.1-2.5-7-4.4c-2-1.9-3.5-4.1-4.6-6.6c-1.1-2.5-1.6-5.3-1.6-8.3
		c0-3,0.5-5.8,1.6-8.3c1.1-2.5,2.6-4.7,4.6-6.6c2-1.9,4.3-3.3,7-4.4c2.7-1,5.6-1.6,8.8-1.6c3.2,0,6.1,0.5,8.8,1.6c2.7,1,5,2.5,7,4.4
		c2,1.9,3.5,4.1,4.6,6.6c1.1,2.5,1.7,5.3,1.7,8.3c0,3-0.6,5.8-1.7,8.3c-1.1,2.6-2.7,4.8-4.6,6.6c-2,1.9-4.3,3.3-7,4.4
		C323.9,344.7,321,345.2,317.8,345.2z M317.8,337.2c1.8,0,3.5-0.3,5-0.9c1.5-0.6,2.9-1.5,4-2.7c1.2-1.2,2-2.5,2.7-4.1
		c0.6-1.6,1-3.3,1-5.2c0-1.9-0.3-3.7-1-5.2c-0.6-1.6-1.5-2.9-2.7-4.1c-1.1-1.2-2.5-2-4-2.7c-1.5-0.6-3.2-0.9-5-0.9
		c-1.8,0-3.5,0.3-5,0.9c-1.5,0.6-2.9,1.5-4,2.7c-1.2,1.2-2,2.5-2.7,4.1c-0.6,1.6-1,3.3-1,5.2c0,1.9,0.3,3.6,1,5.2
		c0.6,1.6,1.5,3,2.7,4.1c1.1,1.2,2.5,2,4,2.7C314.3,336.9,316,337.2,317.8,337.2z"/>
	<path d="M356.2,344.5h-9.3v-40.3h30.5v7.5h-21.1V344.5z M355.5,322.3h19.4v7.5h-19.4V322.3z"/>
	<path d="M393,344.5h-9.3v-40.3h30.5v7.5H393V344.5z M392.3,322.3h19.4v7.5h-19.4V322.3z"/>
	<path d="M429.8,337h22v7.5h-31.2v-40.3H451v7.5h-21.2V337z M429.1,320.4h19.4v7.3h-19.4V320.4z"/>
	<path d="M468.5,337h22v7.5h-31.2v-40.3h30.5v7.5h-21.2V337z M467.8,320.4h19.4v7.3h-19.4V320.4z"/>
</g>
</svg>
